<?xml version="1.0" encoding="UTF-8"?> <svg xmlns="http://www.w3.org/2000/svg" width="87" height="42" viewBox="0 0 87 42" fill="none"><path d="M7.15 19.225C11.4 19.225 13.675 16.375 13.675 12.475C13.675 8.55 11.35 5.7 7.15 5.7C2.95 5.7 0.625 8.55 0.625 12.475C0.625 16.4 2.9 19.225 7.15 19.225ZM7.15 15.85C5.575 15.85 4.55 14.85 4.55 12.475C4.55 10.125 5.55 9.075 7.15 9.075C8.75 9.075 9.75 10.1 9.75 12.475C9.75 14.85 8.75 15.85 7.15 15.85ZM15.0566 19H18.9066V11.75C18.9066 10.175 20.0066 9.2 21.3816 9.2C22.9066 9.2 23.5816 10.1 23.5816 11.6V19H27.4316V10.4C27.4316 7.5 25.4816 5.7 22.5816 5.7C20.8816 5.7 19.7316 6.325 19.0066 7.175H18.9066V0.5H15.0566V19ZM31.1307 4.6C32.6057 4.6 33.4557 3.75 33.4557 2.35C33.4557 0.975 32.6057 0.124999 31.1307 0.124999C29.6057 0.124999 28.8057 0.975 28.8057 2.35C28.8057 3.75 29.6057 4.6 31.1307 4.6ZM29.1807 19H33.0307V5.925H29.1807V19ZM40.6842 19.225C44.9342 19.225 47.2092 16.375 47.2092 12.475C47.2092 8.55 44.8842 5.7 40.6842 5.7C36.4842 5.7 34.1592 8.55 34.1592 12.475C34.1592 16.4 36.4342 19.225 40.6842 19.225ZM40.6842 15.85C39.1092 15.85 38.0842 14.85 38.0842 12.475C38.0842 10.125 39.0842 9.075 40.6842 9.075C42.2842 9.075 43.2842 10.1 43.2842 12.475C43.2842 14.85 42.2842 15.85 40.6842 15.85ZM6.425 41.225C9.75 41.225 12.15 39.75 12.15 37.05C12.15 34.3 10.275 33.375 8.275 33L5.775 32.525C5.15 32.4 4.8 32.125 4.8 31.625C4.8 31.125 5.375 30.725 6.325 30.725C7.625 30.725 8.075 31.475 8.05 32.075H11.85C11.85 29.65 9.8 27.7 6.4 27.7C2.9 27.7 1.025 29.45 1.025 31.575C1.025 34.2 2.925 35.275 5.025 35.675L6.95 36.05C7.85 36.225 8.275 36.5 8.275 37.075C8.275 37.525 7.8 38.025 6.425 38.025C5.05 38.025 4.475 37.3 4.475 36.575H0.625C0.7 39.25 2.35 41.225 6.425 41.225ZM19.3686 41.225C22.9436 41.225 25.0186 39.15 25.3686 36.8H21.6436C21.4186 37.4 20.7936 38.1 19.3686 38.1C17.6186 38.1 16.8436 37.025 16.8186 35.5H25.5436V34.075C25.5436 30.525 23.2936 27.7 19.2936 27.7C15.0436 27.7 12.8936 30.775 12.8936 34.475C12.8936 38.225 15.2436 41.225 19.3686 41.225ZM16.8436 33.075C16.9186 31.825 17.6436 30.85 19.2936 30.85C20.8186 30.85 21.5436 31.825 21.6186 33.075H16.8436ZM26.9102 41H30.5102V34.55C30.5102 32.45 31.6852 31.225 33.5102 31.225H34.7602V27.7H33.8602C32.1852 27.7 31.0852 28.675 30.5102 29.825H30.4102L30.1102 27.925H26.9102V41ZM39.7652 41H44.6902L48.7902 28.175V27.925H44.8902L42.3152 37.375H42.2152L39.5652 27.925H35.6152V28.175L39.7652 41ZM51.7371 26.6C53.2121 26.6 54.0621 25.75 54.0621 24.35C54.0621 22.975 53.2121 22.125 51.7371 22.125C50.2121 22.125 49.4121 22.975 49.4121 24.35C49.4121 25.75 50.2121 26.6 51.7371 26.6ZM49.7871 41H53.6371V27.925H49.7871V41ZM61.3406 41.225C65.1406 41.225 67.1156 38.875 67.2906 35.85H63.4156C63.2906 37 62.4906 37.85 61.2406 37.85C59.6156 37.85 58.6906 36.825 58.6906 34.45C58.6906 32.1 59.6156 31.075 61.2406 31.075C62.4906 31.075 63.2906 31.925 63.4156 33.075H67.2906C67.1156 30.05 65.1156 27.7 61.2406 27.7C57.0656 27.7 54.7656 30.5 54.7656 34.45C54.7656 38.425 57.1656 41.225 61.3406 41.225ZM74.5102 41.225C78.0852 41.225 80.1602 39.15 80.5102 36.8H76.7852C76.5602 37.4 75.9352 38.1 74.5102 38.1C72.7602 38.1 71.9852 37.025 71.9602 35.5H80.6852V34.075C80.6852 30.525 78.4352 27.7 74.4352 27.7C70.1852 27.7 68.0352 30.775 68.0352 34.475C68.0352 38.225 70.3852 41.225 74.5102 41.225ZM71.9852 33.075C72.0602 31.825 72.7852 30.85 74.4352 30.85C75.9602 30.85 76.6852 31.825 76.7602 33.075H71.9852ZM83.9268 41.225C85.3518 41.225 86.1768 40.375 86.1768 38.975C86.1768 37.6 85.3518 36.75 83.9268 36.75C82.4518 36.75 81.6768 37.6 81.6768 38.975C81.6768 40.375 82.4518 41.225 83.9268 41.225Z" fill="#341D74"></path></svg> 